<svg width="12" height="12" viewBox="0 0 12 12" fill="none" xmlns="http://www.w3.org/2000/svg"><path d="M.356 5.153l3.47-3.476 1.015 1.02a1.19 1.19 0 00.559 1.34v3.326a1.2 1.2 0 101.2 0V4.445L7.843 5.7c-.042.09-.042.192-.042.3a1.2 1.2 0 101.201-1.201c-.108 0-.21 0-.3.042L7.159 3.298a1.189 1.189 0 00-.69-1.405 1.262 1.262 0 00-.77-.054L4.68.824l.474-.468a1.185 1.185 0 011.694 0l4.797 4.797a1.185 1.185 0 010 1.694l-4.797 4.797a1.185 1.185 0 01-1.694 0L.356 6.847a1.185 1.185 0 010-1.694z" fill="#2F495E"/></svg>