<svg width="12" height="12" viewBox="0 0 12 12" fill="none" xmlns="http://www.w3.org/2000/svg"><path fill-rule="evenodd" clip-rule="evenodd" d="M2.516 11.942V4.044H.076v7.898h2.44zm0-10.697C2.502.538 2.031 0 1.266 0 .5 0 0 .538 0 1.245 0 1.936.486 2.49 1.236 2.49h.015c.78 0 1.265-.554 1.265-1.245zM6.5 11.942v-4.5c0-.24.017-.481.088-.653.194-.481.634-.98 1.374-.98.97 0 1.577.55 1.577 1.633v4.5h2.458v-4.62c0-2.475-1.322-3.627-3.084-3.627-1.445 0-2.079.808-2.431 1.358L6.5 3.997H4.045c.036.756 0 7.945 0 7.945H6.5z" fill="#2F495E"/></svg>