<svg width="13" height="12" viewBox="0 0 13 12" fill="none" xmlns="http://www.w3.org/2000/svg"><path id="Vector" d="M11.606 7.002a5.64 5.64 0 00-.352-3.241 5.658 5.658 0 00-1.218-1.806A5.652 5.652 0 008.23.738 5.713 5.713 0 004.944.394 3.385 3.385 0 003.362 0C2.465 0 1.62.35.985.985A3.343 3.343 0 000 3.363c0 .571.147 1.134.423 1.63a5.638 5.638 0 00.36 3.19A5.652 5.652 0 002 9.989a5.65 5.65 0 001.807 1.217 5.643 5.643 0 003.206.358A3.365 3.365 0 008.667 12c.898 0 1.743-.349 2.378-.985.636-.635.985-1.48.985-2.378a3.346 3.346 0 00-.424-1.635zm-5.565 2.45c-2.018 0-2.92-.992-2.92-1.735 0-.382.28-.648.669-.648.863 0 .64 1.24 2.251 1.24.826 0 1.282-.448 1.282-.907 0-.275-.136-.582-.68-.715l-1.796-.449C3.402 5.876 3.14 5.094 3.14 4.36c0-1.525 1.436-2.098 2.785-2.098 1.242 0 2.707.687 2.707 1.602 0 .392-.34.62-.728.62-.737 0-.601-1.02-2.086-1.02-.737 0-1.144.333-1.144.81 0 .477.582.629 1.087.745l1.33.294c1.455.325 1.824 1.175 1.824 1.975 0 1.238-.952 2.164-2.873 2.164z" fill="#2F495E"/></svg>