<svg width="12" height="12" viewBox="0 0 12 12" fill="none" xmlns="http://www.w3.org/2000/svg"><path id="Vector" d="M6.375 11.25a5.576 5.576 0 01-2.73-.703L0 12l1.453-3.645a5.575 5.575 0 01-.703-2.73c0-.766.148-1.494.445-2.186a5.669 5.669 0 011.201-1.793A5.669 5.669 0 014.19.446 5.482 5.482 0 016.375 0c.766 0 1.494.148 2.186.445a5.691 5.691 0 011.793 1.201 5.67 5.67 0 011.2 1.793c.298.692.446 1.42.446 2.186s-.148 1.494-.445 2.186a5.67 5.67 0 01-1.201 1.793 5.67 5.67 0 01-1.793 1.2 5.481 5.481 0 01-2.186.446zm1.875-4.5H7.5l-.422.375c-.351-.094-.783-.396-1.295-.908-.512-.512-.814-.944-.908-1.295L5.25 4.5v-.75a.688.688 0 00-.14-.398.89.89 0 00-.311-.288c-.113-.058-.194-.064-.24-.017l-.551.55c-.305.305-.35.78-.135 1.424.215.645.625 1.27 1.23 1.875.606.606 1.231 1.016 1.876 1.231.644.215 1.119.17 1.423-.135l.551-.55c.047-.047.041-.128-.017-.24a.89.89 0 00-.288-.311.688.688 0 00-.398-.141z" fill="#2F495E"/></svg>