<svg width="157" height="40" viewBox="0 0 157 40" fill="none" xmlns="http://www.w3.org/2000/svg"><g id="Group"><path id="Vector" d="M40.442 28.905V12.872h2.078l9.829 12.916V12.872h1.965v16.033h-2.078l-9.828-13.03v13.03h-1.966z" fill="#CBCBCB"/><path id="Vector_2" d="M70.264 28.277c-1.295.495-2.693.74-4.19.74-5.817 0-8.727-2.784-8.727-8.353 0-5.27 2.808-7.905 8.423-7.905 1.611 0 3.11.225 4.494.674v1.793a11.982 11.982 0 00-4.27-.785c-4.38 0-6.568 2.075-6.568 6.223 0 4.447 2.155 6.672 6.47 6.672.687 0 1.45-.09 2.29-.27v-5.45h2.078v6.662z" fill="#CBCBCB"/><path id="Vector_3" d="M73.578 22.716v-9.843h2.076v9.843c0 3.08 1.535 4.621 4.606 4.621 3.07 0 4.605-1.541 4.605-4.62v-9.844h2.078v9.843c0 4.203-2.228 6.303-6.683 6.303s-6.683-2.1-6.683-6.303z" fill="#CBCBCB"/><path id="Vector_4" d="M92.727 12.872v14.352h8.404v1.681h-10.48V12.872h2.076z" fill="#CBCBCB"/><path id="Vector_5" d="M104.129 28.906h-2.157l7.986-18.149 7.986 18.149h-2.302l-2.079-5.046h-5.311l.572-1.68h4.044l-2.999-7.267-5.74 13.993z" fill="#CBCBCB"/><path id="Vector_6" d="M120.134 28.905V12.872h6.852c3.056 0 4.583 1.282 4.583 3.846 0 2.086-1.493 3.63-4.481 4.63l5.515 7.558h-2.741l-5.11-7.21v-1.355c3.069-.488 4.604-1.665 4.604-3.533 0-1.48-.854-2.22-2.56-2.22h-4.584v14.318h-2.078z" fill="#CBCBCB"/><path id="Vector_7" d="M140.387 12.872v11.414c0 3.08-1.816 4.62-5.448 4.62v-1.682c2.247 0 3.37-.98 3.37-2.938V12.872h2.078z" fill="#CBCBCB"/><path id="Vector_8" d="M144.094 28.345v-1.907c1.685.598 3.504.898 5.459.898 2.763 0 4.146-1.01 4.146-3.029 0-1.716-1.02-2.578-3.056-2.578h-2.068c-3.361 0-5.044-1.456-5.044-4.372 0-3.064 2.155-4.598 6.461-4.598 1.871 0 3.612.226 5.223.674v1.906c-1.611-.598-3.352-.897-5.223-.897-2.921 0-4.381.972-4.381 2.915 0 1.719.988 2.578 2.964 2.578h2.068c3.421 0 5.133 1.459 5.133 4.372 0 3.14-2.073 4.71-6.223 4.71-1.955 0-3.774-.224-5.459-.672z" fill="#CBCBCB"/><path id="Vector_9" d="M40.968 28.382V12.348h2.078l9.828 12.916V12.348h1.966v16.034h-2.078l-9.829-13.03v13.03h-1.965z" fill="#000"/><path id="Vector_10" d="M70.79 27.753c-1.296.495-2.692.74-4.19.74-5.818 0-8.728-2.783-8.728-8.353 0-5.27 2.809-7.905 8.425-7.905 1.61 0 3.108.225 4.492.674v1.794a11.983 11.983 0 00-4.268-.786c-4.38 0-6.57 2.075-6.57 6.223 0 4.447 2.156 6.672 6.47 6.672.688 0 1.452-.09 2.291-.27v-5.449h2.077v6.66z" fill="#000"/><path id="Vector_11" d="M74.103 22.192v-9.845h2.077v9.845c0 3.08 1.535 4.62 4.605 4.62 3.07 0 4.606-1.54 4.606-4.62v-9.845h2.078v9.845c0 4.202-2.228 6.301-6.684 6.301-4.454 0-6.682-2.099-6.682-6.3z" fill="#000"/><path id="Vector_12" d="M93.253 12.347V26.7h8.402v1.68H91.176V12.348h2.077z" fill="#000"/><path id="Vector_13" d="M104.654 28.381h-2.156l7.986-18.15 7.985 18.15h-2.302l-2.078-5.045h-5.313l.574-1.682h4.042l-2.998-7.266-5.74 13.993z" fill="#000"/><path id="Vector_14" d="M120.66 28.382V12.348h6.852c3.056 0 4.582 1.282 4.582 3.846 0 2.085-1.492 3.63-4.48 4.63l5.514 7.558h-2.742l-5.109-7.21v-1.357c3.07-.487 4.605-1.663 4.605-3.532 0-1.48-.854-2.22-2.562-2.22h-4.582v14.319h-2.078z" fill="#000"/><path id="Vector_15" d="M140.912 12.347v11.415c0 3.08-1.816 4.619-5.448 4.619V26.7c2.247 0 3.371-.98 3.371-2.938V12.347h2.077z" fill="#B52E31"/><path id="Vector_16" d="M144.619 27.82v-1.906c1.685.597 3.504.898 5.459.898 2.763 0 4.145-1.01 4.145-3.028 0-1.718-1.019-2.578-3.055-2.578H149.1c-3.361 0-5.044-1.458-5.044-4.373 0-3.065 2.154-4.598 6.461-4.598 1.872 0 3.612.226 5.223.674v1.906c-1.611-.599-3.351-.898-5.223-.898-2.921 0-4.381.972-4.381 2.915 0 1.719.987 2.579 2.964 2.579h2.068c3.421 0 5.133 1.458 5.133 4.373 0 3.14-2.074 4.709-6.223 4.709-1.955 0-3.774-.225-5.459-.673z" fill="#B52E31"/><path id="Vector_17" d="M121.46 37.58h.441v-.363c.101.136.197.235.286.297a.934.934 0 00.55.156c.387 0 .691-.148.91-.446.218-.297.328-.67.328-1.12 0-.474-.111-.832-.332-1.076-.222-.243-.51-.365-.866-.365-.171 0-.329.036-.475.108a1.067 1.067 0 00-.377.311v-1.414h-.465v3.912zm1.247-.332c-.345 0-.581-.156-.707-.47a1.74 1.74 0 01-.102-.65c0-.37.083-.635.247-.796a.798.798 0 01.575-.241c.251 0 .441.098.57.294.128.196.193.444.193.743 0 .336-.064.607-.193.812a.644.644 0 01-.583.308zm2.832-.195l-.763-2.315h-.542l1.053 2.925c-.025.064-.065.161-.119.292-.055.13-.087.203-.096.217a.413.413 0 01-.105.107c-.041.03-.106.044-.195.044a.704.704 0 01-.098-.008 1.644 1.644 0 01-.181-.042v.435c.053.014.098.024.134.029.037.005.089.008.156.008.276 0 .471-.08.584-.239.113-.159.308-.601.584-1.326.117-.307.263-.706.436-1.194.233-.65.382-1.066.45-1.248h-.529l-.769 2.315z" fill="#000"/><path id="Vector_18" d="M19.116 0L.357 6.59l2.965 24.534L19.136 39.8l15.896-8.794 2.964-24.533L19.116 0z" fill="#B2B2B2"/><path id="Vector_19" d="M36.124 7.891L19.073 2.087v35.64l14.29-7.895 2.761-21.94z" fill="#B52E31"/><path id="Vector_20" d="M2.462 7.996l2.54 21.941 14.07 7.79V2.086l-16.61 5.91z" fill="#E23237"/><path id="Vector_21" d="M23.025 19.814l-3.921-8.175-3.453 8.175h7.374zm1.495 3.437H14.125L11.8 29.057l-4.326.08L19.073 3.381l12.002 25.756h-4.01l-2.545-5.886z" fill="#F2F2F2"/><path id="Vector_22" d="M19.073 3.38l.03 8.259 3.918 8.181h-3.94l-.008 3.426 5.447.005 2.546 5.887 4.14.077L19.072 3.381z" fill="#B2B2B2"/></g></svg>