<svg width="80" height="80" viewBox="0 0 80 80" fill="none" xmlns="http://www.w3.org/2000/svg"><path d="M72.143 41.095c-1.46 9.286-4.302 12-9.333 18.238-5.032 5.286-12.27 14.112-22.524 13.62-9.286-1.46-12-4.302-18.238-9.334-5.286-5.032-14.111-12.27-13.62-22.524 1.461-9.285 4.302-12 9.334-18.238 5.032-5.285 12.27-14.11 22.524-13.619 9.285 1.46 12 4.302 18.238 9.334 5.286 5.047 14.095 12.27 13.619 22.523z" fill="#3765AF"/><path d="M52.794 28c1.08 1.492 1.603 3.286 1.603 5.365 0 2.143-.54 3.873-1.62 5.175-.602.73-1.491 1.396-2.682 2 1.794.65 3.143 1.682 4.064 3.095.905 1.413 1.365 3.127 1.365 5.143 0 2.08-.524 3.952-1.556 5.603a9.672 9.672 0 01-2.492 2.762c-1.127.857-2.444 1.444-3.968 1.762-1.524.317-3.175.476-4.968.476H26.714V24.27h16.969c4.285.063 7.317 1.301 9.11 3.73zm-19.08 2.365v7.746h8.54c1.524 0 2.762-.286 3.714-.873.953-.587 1.429-1.603 1.429-3.08 0-1.634-.635-2.714-1.889-3.237-1.08-.366-2.476-.556-4.143-.556h-7.65zm0 13.556v9.365h8.524c1.524 0 2.715-.207 3.556-.62 1.54-.761 2.301-2.222 2.301-4.38 0-1.826-.746-3.08-2.238-3.762-.825-.381-2-.588-3.508-.603h-8.635z" fill="#fff"/></svg>