<svg width="68" height="80" viewBox="0 0 68 80" fill="none" xmlns="http://www.w3.org/2000/svg"><g clip-path="url(#clip0)"><path d="M3.448 75.607c-1.369 0-1.767-.797-1.767-1.992 0-.398.05-.847.111-1.32.3-2.067 1.033-3.249 2.8-3.249 1.196 0 1.779.535 1.779 1.506v.473h1.186c.013 0 .013-.436.013-.535 0-1.419-.86-2.765-2.976-2.765-2.876 0-4.059 1.563-4.494 4.626-.063.41-.1.794-.1 1.204 0 1.805.71 3.447 3.25 3.447 1.93 0 3.075-.94 3.747-2.098l-1.133-.763c-.734 1.158-1.531 1.466-2.416 1.466zm7.782-5.702c-2.304 0-3.3 1.182-3.635 3.534a6.14 6.14 0 00-.063.823c0 1.518.71 2.726 2.676 2.726 2.304 0 3.313-1.233 3.649-3.549.037-.298.062-.572.062-.845 0-1.544-.734-2.69-2.689-2.69zm.959 3.535c-.25 1.706-.784 2.229-1.794 2.229-.808 0-1.206-.336-1.206-1.345 0-.249.025-.547.075-.884.249-1.693.747-2.215 1.767-2.215.822 0 1.232.336 1.232 1.356 0 .25-.025.536-.074.86zm7.52-5.59l-.385 2.285c-.025.198-.012.132.063.32-.36-.275-1.009-.456-1.444-.456-2.067 0-3.225.936-3.598 3.55-.05.312-.062.574-.062.835 0 1.906 1.12 2.616 2.626 2.616.636 0 1.258.013 1.743-.397l.124.774h1.195l1.395-9.528H19.71zm-1.182 7.458a2.856 2.856 0 01-1.443.41c-.909 0-1.158-.473-1.158-1.232 0-.286.037-.621.088-.984.285-1.979.92-2.328 1.743-2.328.534 0 .945.087 1.332.3l-.562 3.834zm6.474-5.403c-2.279 0-3.348 1.082-3.71 3.534-.038.3-.063.586-.063.86 0 1.68.86 2.69 2.752 2.69 1.469 0 2.565-.611 3.15-1.732l-1.258-.51c-.36.547-.846.92-1.705.92-.921 0-1.295-.247-1.295-1.069 0-.162.013-.397.038-.397h4.494c.063-.636.136-1.085.136-1.457 0-1.244-.472-2.84-2.538-2.84zm.86 3.026h-2.74c.275-.635.735-1.619 1.681-1.619.734 0 1.096.43 1.096 1.164 0 .124-.012.455-.038.455zm6.47-3.176l.15-1.27h-3.512l-.148 1.27h.92l-.994 6.352h-.923l-.148 1.27h3.51l.15-1.27h-.921l.995-6.352h.922zm7.135 1.905l.448-1.27h-1.207l-.87.18c-.487-.31-1.147-.544-1.769-.544-1.78 0-3.299.86-3.299 2.815 0 .548.199.991.435 1.29-.373.2-.697.532-.697.981a.94.94 0 00.225.589c-.748.449-1.207 1.193-1.207 2.064 0 1.68 1.755 2.04 3.1 2.04 1.692 0 3.71-.387 3.71-2.541 0-.734-.46-1.308-1.793-1.557l-2.403-.449c-.273-.05-.336-.137-.336-.262 0-.186.113-.285.3-.285l.161.024c.324.075.698.113 1.083.113 1.731 0 3.275-.748 3.275-2.69 0-.274-.05-.46-.174-.759.211.1.486.262.597.262h.421zm-3.423 5.154c.473.087.634.261.634.573 0 1.008-1.083 1.133-1.867 1.133-1.195 0-1.643-.286-1.643-.922 0-.56.161-.821.535-1.22l2.341.436zm-.511-3.261c-.723 0-1.12-.261-1.12-.885 0-.92.535-1.456 1.468-1.456.747 0 1.109.311 1.109.92 0 .922-.524 1.42-1.457 1.42zm8.357-3.648c-.698 0-1.32.342-2.092.951l-.112-.466h-1.37l-.958 6.987h1.656l.722-5.299c.486-.298 1.083-.732 1.594-.732.621 0 .846.3.846.873 0 .137-.013.543-.038.692l-.609 4.466h1.656l.61-4.502c.025-.211.05-.558.05-.757 0-1.184-.561-2.213-1.955-2.213zm5.1 5.721l.012-.17.722-5.066h-2.752l-.173 1.27h1.207c-.1 0-.162.112-.174.212l-.498 3.373c-.025.163-.037.5-.037.637 0 .871.473 1.495 1.443 1.495h.847l.187-1.27h-.535c-.188 0-.25-.331-.25-.48zm1.07-7.777h-1.618c-.1 0-.1-.366-.112-.242l-.225 1.79c-.013.113-.013.358.087.358h1.619c.1 0 .1-.435.112-.548l.225-1.382c.012-.124.012.024-.088.024zm3.377 7.82c-.41 0-.61-.175-.61-.547l.013-.026.522-3.436h1.893l.572-1.27h-2.29l.385-2.795-1.742.557-.312 2.238h-1.008l-.174 1.27h1.17c-.112.636-.225.223-.237.349l-.448 3.012c-.025.137-.025.237-.025.36 0 1.184.872 1.626 1.918 1.626.971 0 1.755-.283 2.366-.794l-.773-.95c-.386.236-.647.406-1.22.406zm6.075-5.764c-2.278 0-3.349 1.082-3.71 3.534-.037.3-.062.586-.062.86 0 1.68.859 2.69 2.75 2.69 1.47 0 2.566-.611 3.15-1.732l-1.256-.51c-.361.547-.847.92-1.707.92-.92 0-1.294-.247-1.294-1.069 0-.162.013-.397.038-.397h4.494c.062-.636.137-1.085.137-1.457 0-1.244-.473-2.84-2.54-2.84zm.86 3.026h-2.74c.274-.635.734-1.619 1.681-1.619.735 0 1.096.43 1.096 1.164 0 .124-.013.455-.037.455zm6.262-3.026c-.598 0-1.158.342-1.718.876l-.1-.391h-1.369l-.959 6.987h1.669l.734-5.41c.436-.261.934-.484 1.407-.484.299 0 .585-.048.859-.01l.212-1.444c-.25-.05-.499-.124-.735-.124zm-42.28-7.06c-3.769-1.629-7.295-5.77-7.303-10.005-.01-4.619 2.916-8.54 6.557-11.117-.438 1.654-.677 3.166.408 4.645a4.39 4.39 0 004.44 1.68c3.894-.852 4.073-5.134 1.764-7.628-2.283-2.47-4.491-5.26-3.623-8.843.436-1.796 1.538-3.478 2.935-4.68-1.073 2.821 1.977 5.604 3.988 6.99 3.487 2.405 7.313 4.222 10.52 7.041 3.372 2.963 5.862 6.969 5.36 11.615-.546 5.035-4.547 8.538-9.035 10.306 9.484-2.093 19.284-9.455 19.485-19.974.167-8.654-5.77-15.314-13.124-19.127l-.384-.21c.202.49.268.907.26 1.28a4.49 4.49 0 00.123-.85c-.003.363-.05.706-.134 1.027l.011-.177c-.11.467-.296.9-.544 1.298l.108-.117c-1.468 2.434-5.44 2.962-7.401.443-3.155-4.054.066-8.424.516-12.716.564-5.379-2.81-10.6-6.992-13.726 2.304 3.727-.731 8.657-3.16 11.413-2.354 2.672-5.218 4.903-7.817 7.33-2.792 2.608-5.476 5.355-7.771 8.415-4.59 6.125-7.4 13.829-5.335 21.47 2.063 7.637 8.678 12.498 16.148 14.217z" fill="#EE4323"/></g><defs><clipPath id="clip0"><path fill="#fff" d="M0 0h67.368v80H0z"/></clipPath></defs></svg>