<svg width="80" height="80" viewBox="0 0 80 80" fill="none" xmlns="http://www.w3.org/2000/svg"><path fill-rule="evenodd" clip-rule="evenodd" d="M61.816 63.56l4.72-52.867.06-.693H13.404l.062.693 4.714 52.875.04.441.424.118L39.8 70h.34l21.213-5.882.424-.117.04-.441z" fill="#1572B6"/><path fill-rule="evenodd" clip-rule="evenodd" d="M62.497 13.75H40v52.397l18.272-5.066 4.225-47.331z" fill="#35A8DB"/><path fill-rule="evenodd" clip-rule="evenodd" d="M39.975 27.826l-15.868 6.609.527 6.543 15.341-6.56 16.32-6.977.676-6.693-16.996 7.078z" fill="#E9E9E8"/><path fill-rule="evenodd" clip-rule="evenodd" d="M39.975 20.748h16.996l-.134 1.325-.134 1.325-.134 1.325-.134 1.325-.134 1.324-.007.07H23.506l-.024-.19-.134-1.084-.134-1.084L23.08 24l-.134-1.084-.134-1.084-.134-1.084h17.298zM24.132 34.436h31.586l-.576 6.617-30.484-.075-.526-6.542z" fill="#E9E9E8"/><path fill-rule="evenodd" clip-rule="evenodd" d="M25.119 44.663l6.91.003.45 5.41 7.496 1.86 7.696-2.16.52-8.848 6.972-.11-1.25 14.373L40 59.25l-14.012-4.136-.87-10.452z" fill="#E9E9E8"/><path fill-rule="evenodd" clip-rule="evenodd" d="M40 34.407l16.294-6.966.677-6.693L40 27.816v6.591z" fill="#FFFFFE"/><path fill-rule="evenodd" clip-rule="evenodd" d="M40 20.748h16.971l-.134 1.325-.134 1.325-.134 1.325-.134 1.325-.134 1.324-.007.07H40v-6.694zm0 13.688h15.718l-.576 6.617L40 41.016v-6.58z" fill="#FFFFFE"/><path fill-rule="evenodd" clip-rule="evenodd" d="M40 51.929l7.67-2.153.521-8.848 6.971-.11-1.25 14.373L40 59.25v-7.32z" fill="#FFFFFE"/></svg>