<svg width="80" height="80" viewBox="0 0 80 80" fill="none" xmlns="http://www.w3.org/2000/svg"><g id="iconfinder_debian_4691286"><mask id="mask0" maskUnits="userSpaceOnUse" x="7" y="0" width="66" height="80"><path id="Vector" d="M46.267 42.267c-1.334 0 .266.666 2 .933.466-.333.9-.733 1.3-1.1a10 10 0 01-3.3.167zM53.4 40.5c.767-1.1 1.333-2.3 1.567-3.533-.2.9-.667 1.666-1.1 2.433-2.5 1.567-.234-.9 0-1.867-2.667 3.367-.367 2-.467 2.967zm2.6-6.833c.167-2.4-.467-1.667-.667-.734.234.134.434 1.667.667.734zM41.267 1.033c.666.134 1.5.234 1.4.4.766-.166.933-.333-1.434-.4h.034zm1.4.4l-.5.1.466-.033v-.067h.034zm22.066 33.134c.067 2.133-.666 3.166-1.266 5l-1.167.6c-.933 1.8.1 1.166-.567 2.6-1.466 1.3-4.466 4.066-5.4 4.333-.666 0 .467-.833.634-1.133-1.967 1.333-1.6 2-4.567 2.833l-.1-.2c-7.4 3.467-17.667-3.4-17.5-12.8-.1.567-.233.433-.4.667A11.834 11.834 0 0141.067 24.8 11.2 11.2 0 0153.5 26.4a11.134 11.134 0 00-9.067-4.333C40.5 22.1 36.833 24.6 35.6 27.3c-2 1.267-2.233 4.9-3.1 5.533-1.2 8.667 2.2 12.4 7.933 16.8.9.634.267.7.4 1.167a15.666 15.666 0 01-5.1-3.867c.767 1.1 1.567 2.2 2.667 3.034-1.833-.6-4.233-4.334-4.933-4.5C36.567 51 46.067 55.2 51 53.133c-2.625.186-5.26-.13-7.767-.933-1.1-.533-2.566-1.7-2.333-1.9a19.333 19.333 0 0019.667-2.8c1.466-1.167 3.1-3.133 3.566-3.167-.666 1.067.134.534-.4 1.467 1.467-2.4-.666-1 1.534-4.133l.8 1.1c-.3-2 2.466-4.4 2.2-7.534.633-1 .666 1 0 3.234.966-2.467.266-2.834.5-4.867.266.667.6 1.4.766 2.1-.6-2.333.667-4 .934-5.333-.3-.167-.934 1-1.067-1.767 0-1.233.333-.667.467-.933C69.6 27.5 69 26.6 68.6 24.8c.267-.433.733 1.1 1.133 1.133-.266-1.4-.666-2.5-.666-3.6-1.134-2.266-.4.334-1.334-1-1.133-3.633 1-.833 1.134-2.466 1.8 2.566 2.8 6.533 3.266 8.2-.333-2-.933-4-1.633-5.867.533.233-.867-4.133.7-1.233A26.067 26.067 0 0059 5.333c.6.567 1.4 1.3 1.1 1.4-2.5-1.5-2.067-1.6-2.433-2.233-2.034-.833-2.167.067-3.534 0-3.866-2.067-4.6-1.833-8.133-3.167l.167.767c-2.567-.833-3 .333-5.767 0-.167-.133.9-.467 1.767-.6-2.467.333-2.334-.467-4.767.1.567-.433 1.2-.7 1.833-1.067-2 .134-4.8 1.167-3.933.234-3.3 1.5-9.133 3.566-12.4 6.633l-.1-.733c-1.5 1.8-6.533 5.366-6.933 7.7l-.434.1c-.766 1.333-1.266 2.833-1.9 4.2-1 1.733-1.5.666-1.333.933-2 4.067-3 7.5-3.867 10.333.6.9 0 5.5.234 9.2-1 18.2 12.8 35.9 27.866 40 2.234.767 5.5.767 8.3.834-3.3-.934-3.733-.5-6.933-1.634-2.333-1.066-2.833-2.333-4.467-3.766L34 75.733c-3.233-1.133-1.9-1.4-4.533-2.233l.7-.9c-1.034-.1-2.767-1.767-3.234-2.7l-1.133.033c-1.367-1.666-2.1-2.9-2.033-3.866l-.367.666c-.433-.7-5.067-6.333-2.667-5.033-.433-.4-1.033-.667-1.666-1.833l.466-.567c-1.166-1.467-2.133-3.4-2.066-4 .666.8 1.066 1 1.5 1.1-2.934-7.233-3.1-.4-5.334-7.333l.5-.067c-.333-.533-.6-1.133-.866-1.7l.2-2c-2.1-2.467-.6-10.333-.3-14.667.233-1.8 1.766-3.666 2.933-6.6l-.7-.133c1.333-2.367 7.8-9.567 10.8-9.2 1.433-1.833-.3 0-.6-.467 3.2-3.3 4.2-2.333 6.333-2.933 2.334-1.333-2 .533-.9-.5 4-1 2.834-2.333 8.067-2.833.533.333-1.3.466-1.733.866 3.333-1.633 10.5-1.233 15.2.9C58 12.3 64.1 19.767 64.333 26.833l.267.067c-.133 2.833.433 6.067-.567 9.033l.667-1.4.033.034zM31.8 44.1l-.167.933C32.5 46.2 33.2 47.467 34.3 48.4c-.8-1.567-1.4-2.2-2.5-4.333v.033zm2.067-.1c-.467-.5-.734-1.133-1.034-1.733.267 1.066.867 2 1.434 2.933l-.4-1.2zm36.466-7.933l-.233.5c-.333 2.533-1.133 5.033-2.3 7.366 1.333-2.433 2.167-5.133 2.5-7.866h.033zM41.5.4c.9-.333 2.2-.167 3.167-.4C43.433.1 42.2.167 41 .333l.5.067zM10.033 17.133c.234 1.9-1.433 2.667.367 1.4 1-2.2-.367-.6-.333-1.4h-.034zM7.933 26c.4-1.3.5-2.067.667-2.8-1.167 1.467-.567 1.767-.667 2.767" fill="#000"/></mask><g mask="url(#mask0)"><path id="Rectangle 16" fill="#F35045" d="M0 0h80v80H0z"/></g></g></svg>