<svg width="80" height="80" viewBox="0 0 80 80" fill="none" xmlns="http://www.w3.org/2000/svg"><g clip-path="url(#clip0)"><path d="M78.538 36.44c-.003 0-.003-.002-.003-.002L43.538 1.42c-1.888-1.893-5.192-1.89-7.073-.002L1.462 36.44A4.987 4.987 0 000 39.976c0 1.335.52 2.593 1.465 3.537l34.997 35.02A4.964 4.964 0 0040 80a4.956 4.956 0 003.535-1.466l35-35.02A4.974 4.974 0 0080 39.975c0-1.334-.52-2.59-1.462-3.536z" fill="#EF473B"/><path opacity=".1" d="M78.936 42.3L43.572 77.686A5.008 5.008 0 0140 79.166a5.017 5.017 0 01-3.575-1.482L1.063 42.3a5.043 5.043 0 01-.973-1.408 4.964 4.964 0 001.375 2.621l34.996 35.02A4.964 4.964 0 0040 80a4.956 4.956 0 003.535-1.466l35-35.02a4.964 4.964 0 001.375-2.622c-.244.513-.56.994-.974 1.408z" fill="#010101"/><path d="M56.667 33.334c-1.25 0-2.407.366-3.408.967l-7.56-7.56c.6-1 .968-2.158.968-3.407A6.674 6.674 0 0040 16.666c-1.233 0-2.374.36-3.366.945l-8.18-8.18-2.355 2.357 8.179 8.18c-.586.991-.945 2.132-.945 3.364 0 3.098 2.134 5.685 5 6.43v20.474c-2.866.745-5 3.332-5 6.43A6.674 6.674 0 0040 63.333a6.674 6.674 0 006.667-6.666c0-3.098-2.134-5.685-5-6.43V29.763a6.594 6.594 0 001.656-.685l7.599 7.6c-.57.98-.922 2.106-.922 3.322a6.674 6.674 0 006.667 6.667A6.674 6.674 0 0063.333 40a6.674 6.674 0 00-6.666-6.666z" fill="#fff"/><path opacity=".2" d="M1.462 37.273L36.465 2.252c1.881-1.892 5.185-1.892 7.073 0l34.997 35.02s0 .002.003.002a4.97 4.97 0 011.421 3.119c.012-.14.041-.276.041-.417 0-1.334-.52-2.59-1.462-3.536-.003 0-.003-.002-.003-.002L43.538 1.42c-1.888-1.893-5.192-1.89-7.073-.002L1.462 36.44A4.987 4.987 0 000 39.976c0 .141.03.277.04.416a4.97 4.97 0 011.422-3.119z" fill="#fff"/><path d="M61.829 35.835c.925 1.145 1.504 2.581 1.504 4.165a6.674 6.674 0 01-6.667 6.667A6.674 6.674 0 0149.999 40c0-1.215.351-2.34.922-3.323l-7.599-7.599a6.596 6.596 0 01-1.656.685v20.474c2.867.745 5 3.332 5 6.43a6.674 6.674 0 01-6.667 6.666c-1.705 0-3.246-.662-4.426-1.719l12.44 12.44 26.01-26.026-12.194-12.193zm-16.13-9.094l7.56 7.56c1-.6 2.157-.968 3.407-.968 1.584 0 3.02.579 4.166 1.505L45.24 19.246l-.008.006c.885 1.132 1.434 2.537 1.434 4.082 0 1.25-.367 2.406-.968 3.407z" fill="url(#paint0_linear)"/><path d="M78.538 36.44c-.003 0-.003-.002-.003-.002L43.538 1.42c-1.888-1.893-5.192-1.89-7.073-.002L1.462 36.44A4.987 4.987 0 000 39.976c0 1.335.52 2.593 1.465 3.537l34.997 35.02A4.964 4.964 0 0040 80a4.956 4.956 0 003.535-1.466l35-35.02A4.974 4.974 0 0080 39.975c0-1.334-.52-2.59-1.462-3.536z" fill="url(#paint1_linear)"/></g><defs><linearGradient id="paint0_linear" x1="32.23" y1="32.254" x2="61.021" y2="61.045" gradientUnits="userSpaceOnUse"><stop stop-color="#010101" stop-opacity=".1"/><stop offset="1" stop-color="#010101" stop-opacity="0"/></linearGradient><linearGradient id="paint1_linear" x1="6.713" y1="24.466" x2="73.278" y2="55.506" gradientUnits="userSpaceOnUse"><stop stop-color="#fff" stop-opacity=".2"/><stop offset="1" stop-color="#fff" stop-opacity="0"/></linearGradient><clipPath id="clip0"><path fill="#fff" d="M0 0h80v80H0z"/></clipPath></defs></svg>