<svg width="80" height="80" viewBox="0 0 80 80" fill="none" xmlns="http://www.w3.org/2000/svg"><g clip-path="url(#clip0)"><mask id="mask0" maskUnits="userSpaceOnUse" x="22" y="0" width="36" height="81"><path d="M50.52 64.773l2.12-3.613s-4.814 1.97-12.867 1.97c-8.06 0-12.8-1.893-12.8-1.893l2.37 3.943.84 12.43c0 1.343 4.38 2.393 9.787 2.393 5.41 0 9.793-1.046 9.793-2.393l.763-12.783v-.054h-.006zm2.05-23.486c-2.564.153-3.844 3.01-5.13 6.016-.477 1.1-2.1 5.79-3.16 5.21-1.06-.576 1.376-4.43 2.063-6.723-.79.58-3.683 2.83-4.43.717-1.193 1.046-3.763 1.6-3.473-1.097-.637 1.15-2.07 2.743-3.797 2.047-2.243-.85 1.317-8.037 2.2-7.69.887.403-.177 2-.453 2.646-.62 1.397-1.327 3.194-.85 3.544.8.646 3.013-2.344 3.063-2.397.413-.55 1.597-4.097 2.543-3.69.95.447-2.37 5.137-1.133 6.087.253.2 1.277-.1 1.897-.797.4-.4.26-1.4 1.596-4.593 1.347-3.197 2.547-7.187 3.464-6.887.916.3.163 2.343-.17 3.143-1.547 3.594-4.227 9.48-2.967 9.034 1.247-.45 1.897-.45 3.143-1.897 1.247-1.447 1.15-3.84 1.997-3.79.8.047.7.847.5 1.393.8-.9 3.84-2.893 4.543-.946.847 2.293-4.346 5.64-3.046 5.44 1.25-.15 3.293-1.447 4.193-2.644l2.397-21.666s-2.447 2-17.87 2c-15.424 0-17.614-1.947-17.614-1.947l2.044 19.767c1.1-3.094 3.693-9.38 7.74-9.134 1.846.1 4.343 3.697 2.193 3.797-.9.05-1-1.797-2.047-2.047-.796-.153-1.846.45-2.543 1.15-1.347 1.347-4.347 6.687-3.947 9.337.5 3.393 4.69-1.153 5.39-2.5.497-.943.847-3.793 1.894-3.493 1.1.3-.097 3.246-.9 5.79-.9 2.896-1.347 5.936-2.44 5.586-1.1-.346.696-4.09.593-4.74-1.043.997-2.943 3.4-5.437 2.197l1.247 12.33s3.397 2.643 13.577 2.643 13.726-2.643 13.726-2.643l1.597-14.277c-1.297 1.3-5.39 3.544-5.64 1-.197-2.046 4.443-4.993 3.247-5.046l.2-.23zM57.82 2.23l-8.864 9.333-1.62 6.337c6.27.4 10.63 1.287 10.63 2.313 0 1.397-8.046 2.524-17.97 2.524-9.923 0-17.966-1.144-17.966-2.544 0-1.396 8.046-2.546 17.97-2.546 1.41 0 2.813 0 4.213.053l1.87-7.587L55.5.13c.226-.3.933-.05 1.58.5.646.497.996 1.147.796 1.447v.1l-.056.053zM45.04 21.547s-1.744 0-2.034-.267a.468.468 0 01-.12-.3c0-.193.13-.303.3-.367l.147.25c-.07.02-.097.05-.11.077 0 .137 1.047.23 1.85.22.797-.01 1.77-.077 1.777-.213 0-.04-.077-.077-.204-.11l.15-.24c.21.066.39.193.39.403 0 .367-.47.427-.766.47-.357.05-1.374.077-1.374.077h-.006z" fill="#000"/></mask><g mask="url(#mask0)"><path fill="#EF473B" d="M-2 0h80v80H-2z"/></g></g><defs><clipPath id="clip0"><path fill="#fff" d="M0 0h80v80H0z"/></clipPath></defs></svg>