<svg width="80" height="80" viewBox="0 0 80 80" fill="none" xmlns="http://www.w3.org/2000/svg"><path d="M75.937 4.063H4.063v71.874h71.874V4.063z" fill="#F0DB4F"/><path d="M43.177 60.118c0 6.995-4.108 10.188-10.092 10.188-5.406 0-8.535-2.791-10.14-6.176l5.504-3.321c1.058 1.877 2.021 3.465 4.347 3.465 2.214 0 3.627-.867 3.627-4.252V37.064h6.754v23.054zm15.979 10.188c-6.273 0-10.332-2.984-12.305-6.899l5.503-3.176c1.444 2.358 3.337 4.107 6.658 4.107 2.791 0 4.588-1.396 4.588-3.337 0-2.31-1.829-3.128-4.925-4.492l-1.685-.722c-4.877-2.07-8.102-4.685-8.102-10.188 0-5.07 3.867-8.92 9.883-8.92 4.3 0 7.38 1.492 9.594 5.407l-5.262 3.369c-1.156-2.07-2.407-2.888-4.348-2.888-1.974 0-3.225 1.252-3.225 2.888 0 2.021 1.251 2.84 4.155 4.107l1.685.722c5.743 2.455 8.968 4.974 8.968 10.62 0 6.065-4.78 9.402-11.182 9.402z" fill="#323330"/></svg>