<svg width="80" height="80" viewBox="0 0 80 80" fill="none" xmlns="http://www.w3.org/2000/svg"><path d="M75.658 38.378c-.472-.539-7.052-8.77-8.209-10.162-1.156-1.393-1.729-1.146-2.436-1.045-.719.102-9.04 1.505-10.005 1.663-.966.168-1.572.55-.977 1.38.528.742 5.996 8.501 7.209 10.208l-21.751 5.21-17.315-28.915c-.685-1.022-.831-1.38-2.403-1.302-1.572.067-13.576 1.066-14.43 1.145-.853.067-1.796.45-.943 2.47.854 2.022 14.486 31.397 14.867 32.25.382.854 1.37 2.246 3.683 1.685 2.37-.573 10.59-2.718 15.081-3.897 2.37 4.3 7.21 13.015 8.108 14.261 1.19 1.673 2.021 1.393 3.851.831 1.438-.438 22.413-7.984 23.357-8.366.943-.393 1.527-.662.887-1.617-.472-.696-6.008-8.107-8.905-11.992 1.988-.528 9.05-2.403 9.803-2.617.888-.224 1.011-.65.528-1.19zm-39.549 8.085c-.258.056-12.442 2.976-13.093 3.122-.651.146-.651.078-.73-.146-.078-.225-14.485-29.948-14.688-30.319-.202-.37-.19-.663 0-.663.192 0 11.51-1.01 11.903-1.033.405-.022.36.068.506.315 0 0 15.967 27.556 16.237 28.04.292.482.123.628-.135.684zm34.361 6.446c.191.303.393.505-.224.718-.607.225-20.628 6.974-21.01 7.142-.393.168-.696.224-1.19-.505-.494-.73-7.007-11.993-7.007-11.993l21.2-5.514c.528-.168.697-.28 1.033.247.326.54 7.007 9.602 7.198 9.905zm1.36-15.059c-.473.101-8.266 2.033-8.266 2.033l-6.367-8.737c-.179-.258-.325-.505.124-.561.449-.056 7.68-1.37 8.006-1.437.326-.08.606-.169 1.01.381.405.55 5.907 7.524 6.12 7.793.203.259-.156.416-.628.528z" fill="#F35045"/></svg>