<svg width="142" height="40" viewBox="0 0 142 40" fill="none" xmlns="http://www.w3.org/2000/svg"><path d="M129.298 16.986c-.111.028-.25.274-.25.439-.028.959-.055 3.48-.055 5.205 0 .055.083.137.138.137.361.027 1.221.055 1.969.055 1.027 0 1.637-.137 1.97-.274.859-.438 1.275-1.37 1.275-2.384 0-2.301-1.636-3.205-4.077-3.205-.138-.055-.61-.055-.97.027zm6.212 10.658c0-2.356-1.747-3.671-4.937-3.671-.138 0-1.164-.028-1.386.027-.083.027-.167.082-.167.137 0 1.699-.027 4.384.056 5.425.055.465.388 1.096.804 1.287.444.247 1.415.274 2.108.274 1.858 0 3.522-1.04 3.522-3.48zM124.361 15.67c.25 0 .971.083 2.829.083 1.747 0 3.162-.055 4.881-.055 2.108 0 4.992.74 4.992 3.835 0 1.535-1.081 2.74-2.496 3.343-.083.027-.083.082 0 .082 2.025.493 3.8 1.726 3.8 4.082 0 2.274-1.442 3.753-3.55 4.658-1.276.548-2.857.74-4.493.74-1.22 0-4.521-.138-6.379-.083-.194-.082.166-.931.333-1.068.444-.028.776-.055 1.22-.192.638-.165.721-.356.832-1.343.056-.822.056-3.78.056-5.89 0-2.877.027-4.85 0-5.78-.028-.74-.278-.987-.832-1.124-.416-.082-1.082-.164-1.637-.247-.111-.137.305-.958.444-1.04zm-13.895 14.822c.582.466 1.72.63 2.718.63 1.304 0 2.607-.246 3.855-1.37 1.276-1.15 2.163-2.904 2.163-5.726 0-2.684-1.026-4.876-3.161-6.164-1.193-.74-2.746-1.041-4.521-1.041-.527 0-1.026.027-1.359.164-.083.055-.25.274-.25.384-.055.466-.055 4.137-.055 6.301 0 2.22 0 5.315.055 5.672.028.356.194.904.555 1.15zm-5.491-14.822c.471 0 2.218.083 3.05.083 1.526 0 2.607-.083 5.464-.083 2.413 0 4.438.63 5.88 1.863 1.747 1.507 2.69 3.562 2.69 6.11 0 3.589-1.664 5.671-3.328 6.85-1.664 1.205-3.827 1.917-6.934 1.917-1.636 0-4.465-.055-6.795-.082h-.027c-.111-.22.194-1.041.388-1.069.638-.082.804-.082 1.109-.219.5-.192.61-.466.666-1.342.083-1.644.055-3.617.055-5.863 0-1.59.028-4.713-.027-5.726-.084-.822-.444-1.041-1.165-1.178a14.628 14.628 0 00-1.526-.247c-.055-.137.389-.877.5-1.014z" fill="#8E714E"/><path d="M75.798 31.425c-.61-.082-1.026-.165-1.58-.411-.084-.055-.195-.274-.195-.384-.055-.822-.055-3.205-.055-4.822 0-1.287-.222-2.41-.777-3.205-.638-.904-1.58-1.425-2.801-1.425-1.054 0-2.496.712-3.661 1.726-.028.027-.222.192-.194-.082 0-.274.055-.795.083-1.15.028-.33-.166-.494-.166-.494-.777.384-2.94.877-3.745.959-.582.11-.72.657-.11.85h.027c.638.191 1.082.41 1.415.63.25.191.221.465.221.657.028 1.78.028 4.52-.055 6.027-.028.603-.194.822-.638.905l.056-.028a8.59 8.59 0 01-1.026.192c-.14.137-.14.904 0 1.068.277 0 1.663-.082 2.828-.082 1.581 0 2.413.082 2.83.082.166-.191.221-.904.11-1.068a5.29 5.29 0 01-1.11-.165c-.443-.082-.554-.3-.582-.821-.055-1.26-.055-3.918-.055-5.754 0-.493.139-.74.277-.877.555-.465 1.443-.822 2.247-.822.776 0 1.276.247 1.664.549.527.438.693 1.04.776 1.506.111 1.014.084 3.041.084 4.822 0 .96-.084 1.178-.444 1.315-.166.082-.61.165-1.11.22-.166.164-.11.904 0 1.068.694 0 1.526-.082 2.719-.082 1.497 0 2.468.082 2.856.082.166-.11.222-.795.111-.986zm6.684-9.096c-1.276 0-2.08.986-2.08 2.493 0 1.562.693 3.342 2.69 3.342.333 0 .97-.137 1.248-.465.472-.439.777-1.288.777-2.192 0-2-.999-3.178-2.635-3.178zm-.166 10.52c-.472 0-.832.137-1.026.274-1.027.63-1.47 1.26-1.47 2 0 .685.277 1.233.832 1.726.693.603 1.664.877 2.884.877 2.468 0 3.55-1.315 3.55-2.603 0-.904-.471-1.506-1.387-1.835-.693-.302-1.913-.439-3.383-.439zm.166 6.192c-1.47 0-2.524-.301-3.439-1.014-.888-.657-1.276-1.67-1.276-2.356 0-.191.056-.712.472-1.178.277-.274.832-.822 2.218-1.753.056-.028.084-.055.084-.083 0-.054-.056-.082-.084-.109-1.137-.438-1.47-1.123-1.58-1.507v-.082c-.028-.137-.084-.274.138-.438l.666-.439c.416-.246.832-.493 1.11-.712.055-.055.055-.082.055-.137 0-.055-.056-.082-.084-.11-1.691-.548-2.523-1.78-2.523-3.643a3.65 3.65 0 011.553-3.014c.665-.52 2.357-1.178 3.467-1.178h.083c1.137.027 1.747.274 2.662.575.472.164.943.247 1.581.247.943 0 1.36-.274 1.692-.63.028.054.083.164.083.465.028.302-.083.767-.305 1.096-.194.274-.638.466-1.054.466h-.11c-.445-.055-.639-.082-.639-.082l-.083.055c-.028.054 0 .082.028.164l.028.055c.055.219.138.849.138 1.013 0 1.946-.804 2.822-1.636 3.452-.832.603-1.747.987-2.829 1.069-.028 0-.11 0-.333.027-.11 0-.277.028-.305.028h-.028c-.194.055-.665.274-.665.685 0 .356.222.794 1.248.849.222.027.444.027.666.055 1.386.082 3.078.219 3.882.466 1.11.41 1.803 1.37 1.803 2.547 0 1.754-1.276 3.398-3.411 4.439-1.11.465-2.136.712-3.273.712zm13.756-16.603c-.499 0-.97.11-1.303.357-.943.575-1.415 1.726-1.415 3.37 0 3.123 1.581 5.315 3.855 5.315.666 0 1.193-.192 1.665-.576.693-.575 1.053-1.726 1.053-3.315 0-3.068-1.58-5.15-3.855-5.15zm.416 10.192c-4.104 0-5.574-2.986-5.574-5.753 0-1.945.804-3.452 2.385-4.52 1.137-.686 2.496-1.07 3.688-1.07 3.135 0 5.326 2.22 5.326 5.398 0 2.164-.86 3.89-2.524 4.931-.777.521-2.164 1.014-3.3 1.014zm-42.96-10.192c-.5 0-.971.11-1.304.357-.943.575-1.414 1.726-1.414 3.37 0 3.123 1.58 5.315 3.855 5.315.665 0 1.192-.192 1.664-.576.693-.575 1.054-1.726 1.054-3.315 0-3.068-1.553-5.15-3.855-5.15zm.444 10.192c-4.105 0-5.575-2.986-5.575-5.753 0-1.945.804-3.452 2.385-4.52 1.137-.686 2.496-1.07 3.689-1.07 3.134 0 5.325 2.22 5.325 5.398 0 2.164-.86 3.89-2.524 4.931-.777.521-2.163 1.014-3.3 1.014zm-27.568-.246c-.056-.083-.084-.274-.084-.548 0-.192.056-.302.084-.356.499-.083.776-.137 1.053-.22.472-.11.666-.383.694-.986.083-1.425.083-4.137.055-6.027v-.055c0-.22 0-.466-.277-.658a5.027 5.027 0 00-1.442-.63c-.222-.082-.36-.192-.333-.329 0-.137.139-.301.471-.356.805-.082 2.857-.575 3.69-.931.054.055.11.192.11.383l-.028.274a8.73 8.73 0 00-.055.877c0 .082.083.164.194.164.055 0 .083-.027.139-.055 1.553-1.178 2.94-1.616 3.66-1.616 1.193 0 2.108.548 2.802 1.699.055.082.083.082.166.082a.153.153 0 00.139-.082c1.414-1.069 2.857-1.726 3.8-1.726 2.246 0 3.577 1.643 3.577 4.438 0 .795 0 1.808-.028 2.74 0 .822-.027 1.589-.027 2.137 0 .11.166.493.443.575.333.165.805.247 1.387.329h.028c.055.164-.056.794-.139.904-.139 0-.36 0-.61-.027a31.746 31.746 0 00-1.83-.055c-1.498 0-2.275.027-3.024.082-.055-.192-.083-.767 0-.904a7.5 7.5 0 00.916-.22c.471-.136.61-.355.638-.986 0-.465.083-4.301-.056-5.232-.139-.96-.86-2.083-2.468-2.083-.61 0-1.553.247-2.469.932-.055.055-.083.164-.083.246v.028c.084.493.084 1.068.084 1.945v1.562c0 1.068-.028 2.082 0 2.822 0 .52.305.63.582.74.139.027.25.054.36.082.222.054.444.082.777.164.056.082.056.41-.028.657-.028.137-.083.22-.083.247-.832-.027-1.664-.055-2.884-.055-.36 0-.999.028-1.526.028-.443 0-.832.027-1.081.027a1.131 1.131 0 01-.083-.466c0-.219.055-.383.083-.438.11-.027.222-.055.333-.055.277-.055.526-.082.776-.137.416-.11.555-.329.583-.85.083-1.177.138-4.602-.028-5.451-.278-1.37-1.082-2.082-2.358-2.082-.748 0-1.692.356-2.468.931-.111.082-.222.329-.222.548v1.397c0 1.726 0 3.863.028 4.795.027.274.11.63.665.74.111.027.306.082.555.082l.444.082c.055.137.028.712-.083.904-.25 0-.527-.027-.86-.027a33.629 33.629 0 00-3.827 0h-.832z" fill="#442D22"/><path d="M13.867 38.11l-.998-.33s.11-4.986-1.692-5.342c-1.193-1.37.194-58.602 4.52-.191 0 0-1.497.74-1.747 2-.277 1.232-.083 3.863-.083 3.863z" fill="#fff"/><path d="M13.867 38.11l-.998-.33s.11-4.986-1.692-5.342c-1.193-1.37.194-58.602 4.52-.191 0 0-1.497.74-1.747 2-.277 1.232-.083 3.863-.083 3.863z" fill="#A6A385"/><path d="M14.394 33.288s8.653-5.617 6.629-17.315C19.08 7.48 14.45 4.685 13.95 3.617c-.554-.768-1.081-2.11-1.081-2.11l.36 23.644c.028.055-.72 7.26 1.165 8.137z" fill="#fff"/><path d="M14.394 33.288s8.653-5.617 6.629-17.315C19.08 7.48 14.45 4.685 13.95 3.617c-.554-.768-1.081-2.11-1.081-2.11l.36 23.644c.028.055-.72 7.26 1.165 8.137z" fill="#499D4A"/><path d="M12.37 33.617s-8.127-5.48-7.655-15.124C5.186 8.85 10.9 4.11 12.009 3.233c.749-.767.777-1.041.832-1.808.5 1.068.416 16.027.472 17.808.221 6.767-.389 13.096-.944 14.384z" fill="#fff"/><path d="M12.37 33.617s-8.127-5.48-7.655-15.124C5.186 8.85 10.9 4.11 12.009 3.233c.749-.767.777-1.041.832-1.808.5 1.068.416 16.027.472 17.808.221 6.767-.389 13.096-.944 14.384z" fill="#58AA50"/></svg>