<svg width="80" height="80" viewBox="0 0 80 80" fill="none" xmlns="http://www.w3.org/2000/svg"><path d="M77.465 40.244c-1.728 10.986-5.09 14.197-11.042 21.578-5.953 6.253-14.517 16.694-26.648 16.112-10.986-1.727-14.197-5.089-21.578-11.042-6.253-5.953-16.695-14.516-16.112-26.648 1.727-10.986 5.089-14.197 11.042-21.577C19.08 12.413 27.643 1.972 39.775 2.554c10.986 1.728 14.197 5.09 21.577 11.042 6.254 5.953 16.695 14.517 16.113 26.648z" fill="#3765AF"/><path d="M24.47 39.662c-1.352-.394-2.273-.056-2.667.864l-2.704 6.084-2.648-6.084c-.395-.92-1.315-1.258-2.667-.864-.582.188-.864.488-.864 1.202v7.06h1.784v-7.06l2.798 6.14c.3.733.77 1.015 1.653 1.015s1.296-.282 1.634-1.014l2.76-6.141v7.06h1.784v-7.06c0-.676-.281-1.014-.863-1.202zm9.089 7.118h-3.906c-.996-.02-1.052-.526-1.052-.733v-3.869h-1.784c.056.02 0 3.888.019 3.982 0 .882 1.127 1.69 2.91 1.69h3.813v.47c0 .168.131.75-1.014.882h-5.653v1.202h5.615c.902 0 2.836-.338 2.836-1.897v-6.366h-1.784v4.638zm33.145-5.109c-.131-.131-.281-.244-.394-.394a6.588 6.588 0 00-1.409-1.39c-.431-.3-1.408-.713-1.558-1.22l-.038-.038c.3-.037.639-.131.958-.206.47-.132.882-.094 1.39-.207.206-.056.431-.132.638-.188v-.131c-.244-.244-.432-.582-.676-.808a17.813 17.813 0 00-2.272-1.69c-.432-.282-.977-.47-1.409-.676-.15-.094-.432-.131-.526-.244-.244-.3-.394-.714-.544-1.052-.395-.77-.77-1.596-1.146-2.404-.244-.525-.394-1.07-.713-1.558-1.409-2.329-2.949-3.756-5.315-5.127-.526-.282-1.108-.394-1.746-.545-.338 0-.676-.037-1.014-.056-.207-.094-.432-.375-.639-.488-.77-.488-2.798-1.559-3.38-.15-.376.882.544 1.784.864 2.215.244.301.526.677.713 1.015.094.244.132.488.207.732.206.62.432 1.258.713 1.84.15.282.3.583.526.864.132.15.3.207.338.47-.188.281-.206.676-.3 1.014-.488 1.54-.3 3.474.394 4.6.207.339.733 1.109 1.446.808.62-.244.489-1.014.639-1.727.037-.15 0-.282.094-.376v.038c.187.375.375.77.544 1.145.432.676 1.165 1.39 1.784 1.84.338.245.582.677 1.014.827v-.038h-.037c-.094-.131-.207-.188-.3-.282-.245-.244-.526-.544-.714-.826-.582-.77-1.07-1.634-1.54-2.498-.207-.431-.395-.882-.582-1.314-.094-.15-.094-.394-.207-.488-.206.3-.526.544-.638.92-.245.582-.282 1.315-.376 2.066-.056 0-.038 0-.056.037-.432-.131-.582-.544-.77-.958-.395-.976-.489-2.554-.132-3.662.094-.281.526-1.201.338-1.483-.094-.244-.375-.394-.526-.62a3.661 3.661 0 01-.488-.882c-.338-.77-.488-1.634-.864-2.404-.15-.376-.47-.733-.676-1.052-.244-.375-.544-.638-.77-1.07-.056-.15-.15-.395-.056-.545.038-.131.094-.15.188-.188.188-.15.676.038.864.132.525.206.92.394 1.352.676.188.131.394.394.638.47h.282c.432.093.92.037 1.352.15.732.244 1.39.582 1.972.957a12.096 12.096 0 014.263 4.695c.15.3.244.62.375.92.282.676.639 1.352.92 2.028.282.639.545 1.296.977 1.84.207.283 1.014.433 1.408.583.282.132.714.244.958.376.47.281.92.62 1.39.92.169.169.883.507.92.789-1.108-.038-1.934.093-2.667.375-.206.094-.525.094-.544.338.131.132.131.282.206.432.15.282.47.639.714.826.282.207.582.432.883.639.525.338 1.145.526 1.652.864.3.188.62.432.883.638.15.132.244.282.432.376v-.038c-.094-.131-.132-.3-.207-.432z" fill="#fff"/><path d="M50.817 25.822v.037h.038c.131.207.3.376.432.545.131.206.206.432.3.638l.038-.037c.187-.132.281-.376.281-.676-.094-.094-.094-.188-.15-.282-.113-.131-.3-.188-.394-.282-.244 0-.395.038-.545.057zM38.272 39.831c-1.051.338-1.54.864-1.54 1.784v.977c0 .807.883 1.502 2.423 1.652h2.554c.545.056.807.15.976.376.132.131.132.206.132.338v1.051c0 .132-.094.282-.244.432-.15.15-.432.244-.77.244h-5.108v1.24h5.183a4.18 4.18 0 001.653-.338c.77-.376 1.145-.826 1.145-1.484V44.79c0-.526-.432-.977-1.258-1.315a4.816 4.816 0 00-1.54-.244h-2.16c-.732 0-1.07-.206-1.164-.713v-1.109c.094-.376.282-.47.92-.526h5.258V39.68h-5.014c-.732 0-1.108.037-1.446.15zm19.362 5.972v-6.141H55.85l-.038 6.16c0 1.22.92 1.896 2.76 2.028.189 0 .339.037.527.037h4.676v-1.202H59.08c-1.052 0-1.446-.244-1.446-.882zm-2.892.094v-4.244c0-1.07-.733-1.728-2.235-1.935-.188-.037-.338-.037-.526-.037h-3.418c-.15 0-.338.037-.488.037-1.502.188-2.272.864-2.272 1.935v4.244c0 .976.544 1.596 1.765 1.915.376.094.751.132 1.052.132h1.896l1.447-.094 1.408 1.296h2.066l-1.747-1.597c.751-.3 1.052-.77 1.052-1.652zm-1.728-4.15v4.244a.96.96 0 01-.47.582l-1.295-1.165h-2.066l1.484 1.353h-1.634c-.714 0-1.164-.282-1.258-.77 0-.057-.038-.132-.038-.188v-4.056c0-.545.507-.883 1.315-.883h2.704c.713 0 1.164.263 1.258.732v.15zM66.14 47.55l-.337-.827h-.376v1.202h.244v-.92l.338.92h.188l.338-.92.038.92h.244v-1.202h-.376l-.3.826zm-1.933-.64h.375v1.015h.244V46.91h.338v-.207h-.957v.207z" fill="#fff"/></svg>