<svg width="80" height="80" viewBox="0 0 80 80" fill="none" xmlns="http://www.w3.org/2000/svg"><path d="M39.986 75.937a5.586 5.586 0 01-2.767-.741l-8.8-5.206c-1.312-.742-.67-.998-.242-1.141 1.754-.613 2.11-.741 3.979-1.811.2-.114.456-.072.656.057l6.76 4.008a.826.826 0 00.813 0l26.342-15.204a.844.844 0 00.4-.713V24.779c0-.3-.157-.57-.414-.728L40.385 8.861a.825.825 0 00-.813 0L13.258 24.066a.832.832 0 00-.413.728v30.393c0 .285.156.57.413.699l7.217 4.164c3.922 1.954 6.318-.342 6.318-2.667V27.374c0-.428.342-.756.77-.756h3.338c.413 0 .77.328.77.756v30.023c0 5.22-2.853 8.215-7.802 8.215-1.526 0-2.724 0-6.061-1.655l-6.903-3.98a5.546 5.546 0 01-2.767-4.805V24.779a5.563 5.563 0 012.767-4.807L37.219 4.77c1.668-.942 3.88-.942 5.533 0l26.343 15.217a5.546 5.546 0 012.767 4.807v30.393a5.581 5.581 0 01-2.767 4.806L42.752 75.196a5.547 5.547 0 01-2.766.741zM61.25 45.972c0-5.69-3.851-7.202-11.938-8.272-8.186-1.084-9.014-1.64-9.014-3.551 0-1.583.7-3.694 6.76-3.694 5.407 0 7.403 1.17 8.23 4.82a.764.764 0 00.742.6h3.423a.745.745 0 00.556-.243.79.79 0 00.2-.584c-.528-6.29-4.707-9.214-13.15-9.214-7.516 0-11.995 3.166-11.995 8.486 0 5.762 4.464 7.36 11.667 8.072 8.629.842 9.299 2.112 9.299 3.809 0 2.938-2.367 4.193-7.916 4.193-6.974 0-8.5-1.755-9.013-5.22a.755.755 0 00-.756-.642h-3.41a.752.752 0 00-.755.756c0 4.436 2.41 9.727 13.949 9.727 8.329-.014 13.12-3.31 13.12-9.043z" fill="#539E43"/></svg>