<svg width="870" height="265" viewBox="0 0 870 265" fill="none" xmlns="http://www.w3.org/2000/svg"><g id="NUXT_logo" opacity=".6"><g id="Group" fill-rule="evenodd" clip-rule="evenodd"><path id="Vector" d="M373.4 137.737c1 1.1 1.7 2.6 1.6 4.2v81.5c0 1.7-.6 3.4-1.8 4.7a6.188 6.188 0 01-4.6 1.9c-1 0-2-.2-3-.5a4.995 4.995 0 01-2.1-1.4l-52.8-68.7v64.6a5.695 5.695 0 01-3.678 5.539 5.676 5.676 0 01-2.322.361c-1.5 0-3-.6-4-1.7a5.8 5.8 0 01-1.7-4.1v-81.7c0-1.7.7-3.4 2-4.6a6.008 6.008 0 014.3-1.8c1 0 2.1.2 3 .6 1 .3 1.8 1 2.4 1.7l52.5 68.9v-65.3a5.693 5.693 0 011.7-4.272 5.709 5.709 0 014.3-1.628c1.5 0 3 .5 4 1.7h.2zm108.7.2c1.1 1.3 1.8 3 1.7 4.6v51.6c.1 6.6-1.5 13.2-4.7 19-3 5.6-7.5 10.2-13 13.3-5.6 3.3-12 5-18.6 4.9-6.5 0-13-1.6-18.8-4.8a33.99 33.99 0 01-13-13.2 38.597 38.597 0 01-4.7-19.1v-51.6c0-1.7.6-3.4 2-4.6a6.704 6.704 0 019.3 0c1.2 1.2 1.9 2.8 1.9 4.6v51.4c-.1 4.4 1 8.7 3.2 12.6a23.196 23.196 0 0020.1 11.7 23.987 23.987 0 0017.142-7.099 24.001 24.001 0 006.958-17.201v-51.4c0-1.7.5-3.4 1.6-4.7 1.2-1.3 2.8-2 4.5-1.9 1.7 0 3.3.7 4.4 1.9zm103.9 81.8a6.303 6.303 0 011.1 3.8c.1 1.7-.6 3.4-1.9 4.6a6.398 6.398 0 01-4.3 1.7c-2.1.1-4.1-1-5.3-2.7l-26-34.8-25.6 34.8a6.198 6.198 0 01-5.2 2.8c-1.6 0-3-.6-4.1-1.7-1-1-1.7-2.4-1.7-3.8 0-1.6.6-3.2 1.6-4.4l27.6-37.5-27.7-37.2a6.197 6.197 0 01.5-8.4 6.3 6.3 0 017.4-1.2 6.01 6.01 0 012.4 2l25.8 34.6 25.4-34.3c1.1-1.7 3-2.8 5.1-3 1.6 0 3.2.8 4.3 2 1.1 1 1.8 2.5 1.9 4 0 1.5-.5 2.8-1.4 4l-28 37.2 28 37.5h.1zm96.5-82c1.2 1.1 2 2.8 1.9 4.5 0 1.7-.7 3.3-2 4.4-1.2 1.1-2.9 1.7-4.6 1.6H654v75.4c0 1.7-.6 3.3-1.9 4.5a7.396 7.396 0 01-9.8 0 6.2 6.2 0 01-2-4.5v-75.4h-23.8c-1.7 0-3.3-.5-4.6-1.7a5.884 5.884 0 01-1.9-4.5c0-1.6.6-3.2 1.8-4.3 1.3-1.2 3-1.8 4.6-1.7h61.4c1.7 0 3.4.5 4.7 1.7z" fill="#2F495E"/><path id="Vector_2" d="M711.7 227.637c-4.3-2.4-8-6-10.5-10.3-.7-1-1.1-2.3-1.2-3.6 0-1.7.7-3.3 2-4.4 1.1-1.2 2.6-1.8 4.2-2 2.4.3 4.6 1.5 6 3.4 3 5 8.4 8 14.1 7.8a17.207 17.207 0 0012.487-4.857A17.207 17.207 0 00744 201.337v-58.8a6.01 6.01 0 012-4.6c1.3-1.2 3-1.9 4.7-1.9 1.8 0 3.5.6 4.8 1.8a6.308 6.308 0 011.8 4.6v59a29.004 29.004 0 01-15 26 31.2 31.2 0 01-30.5.2h-.1zm92.5.4c-5.3-2-10.2-5-14.4-9a7.194 7.194 0 01-2.8-5.4 6.004 6.004 0 012-4.4 6.002 6.002 0 014.3-1.9c1.5 0 2.8.5 3.9 1.5 3.2 3 7 5.5 11 7.3 4.2 1.6 8.6 2.4 13 2.4 5 .1 10-1.2 14.3-4 3.5-2 5.8-5.7 5.8-9.8.1-4.3-2.1-8.4-5.8-10.8a52.017 52.017 0 00-17.4-6.3c-9.2-2-16.3-5-21.3-9.3-5-4.3-7.4-10.3-7.4-17.9-.1-5 1.3-9.9 4.2-14 2.9-4 6.8-7.2 11.4-9.2a45.5 45.5 0 0132.4-.5 33.008 33.008 0 0112 7.1c1.8 1.4 3 3.5 3 5.7a6 6 0 01-1.8 4.3 5.693 5.693 0 01-4.4 2c-1 0-2.2-.4-3-1.1a32.106 32.106 0 00-21.4-8.2c-5-.3-10 1-14.3 3.6a11.904 11.904 0 00-3.889 15.514c.924 1.727 2.26 3.2 3.889 4.286a49.954 49.954 0 0015.8 6c5.9 1.1 11.6 3 17.1 5.3 4.2 1.9 7.8 4.8 10.3 8.6 2.6 4.4 3.8 9.3 3.6 14.4.1 5-1.4 9.8-4.3 13.8-3 4.2-7.2 7.4-12 9.4a49.795 49.795 0 01-33.9.6h.1z" fill="#00C48D"/></g><g id="Group_2"><path id="Vector_3" d="M145.242 94.854l-8.723 15.074-29.833-51.564-91.584 158.271H77.11c0 8.325 6.763 15.073 15.106 15.073H15.102a15.108 15.108 0 01-13.079-7.538 15.045 15.045 0 010-15.072l91.584-158.27a15.111 15.111 0 0113.082-7.538 15.112 15.112 0 0113.082 7.537l25.471 44.027z" fill="#00C58E"/><path id="Vector_4" d="M211.354 209.098l-57.388-99.17-8.724-15.074-8.723 15.074-57.382 99.17a15.046 15.046 0 000 15.072 15.108 15.108 0 0013.079 7.538h106.04a15.113 15.113 0 0013.084-7.535 15.045 15.045 0 00.001-15.075h.013zm-119.138 7.537l53.026-91.634 53.014 91.634H92.216z" fill="#2F495E"/><path id="Vector_5" d="M252.384 224.172a15.108 15.108 0 01-13.079 7.536h-41.049c8.343 0 15.105-6.748 15.105-15.073h25.913L165.748 89.56l-11.782 20.368-8.724-15.074 7.427-12.831a15.11 15.11 0 0113.082-7.537 15.11 15.11 0 0113.082 7.537l73.551 127.075a15.048 15.048 0 010 15.074z" fill="#108775"/></g></g></svg>