<svg width="77" height="77" viewBox="0 0 77 77" fill="none" xmlns="http://www.w3.org/2000/svg"><path d="M43.604 26.76l-2.619 4.534-8.956-15.513L4.534 63.397H23.15a4.535 4.535 0 004.535 4.535H4.534A4.534 4.534 0 01.608 61.13l27.494-47.617a4.535 4.535 0 017.855 0l7.647 13.246z" fill="#00C58E"/><path d="M63.452 61.13L46.223 31.294l-2.619-4.535-2.619 4.535L23.758 61.13a4.535 4.535 0 003.927 6.802H59.52a4.536 4.536 0 003.928-6.802h.004zm-35.767 2.267l15.92-27.568L59.52 63.397H27.685z" fill="#2F495E"/><path d="M75.77 65.665a4.534 4.534 0 01-3.927 2.267H59.52a4.535 4.535 0 004.535-4.535h7.779L49.76 25.168l-3.537 6.127-2.619-4.535 2.23-3.86a4.535 4.535 0 017.855 0l22.08 38.231a4.535 4.535 0 010 4.535z" fill="#108775"/></svg>