<svg width="80" height="80" viewBox="0 0 80 80" fill="none" xmlns="http://www.w3.org/2000/svg"><path d="M72.778 41c-1.46 9.286-4.302 12-9.334 18.238-5.031 5.286-12.27 14.111-22.523 13.62-9.286-1.461-12-4.302-18.238-9.334C17.397 58.492 8.57 51.254 9.063 41c1.46-9.286 4.302-12 9.334-18.238 5.032-5.286 12.27-14.111 22.524-13.62 9.285 1.461 12 4.303 18.238 9.334 5.286 5.032 14.11 12.27 13.619 22.524z" fill="#3765AF"/><path d="M28.46 37.333c1.254 0 2.032.207 2.445.683.412.413.46 1.254.254 2.285-.207 1.143-.62 1.969-1.302 2.445-.619.46-1.603.73-2.905.73h-1.968l1.19-6.238c0 .095 2.286.095 2.286.095zm-7.889 12.46h3.223l.73-3.952h2.81c1.253 0 2.174-.111 3.015-.365a5.33 5.33 0 002.127-1.301c.524-.46.984-1.096 1.35-1.667a6.437 6.437 0 00.682-1.968c.317-1.762.111-3.111-.73-4.096-.826-.984-2.175-1.46-4.048-1.46h-6.238l-2.92 14.81zm17.191-18.745h3.222L40.254 35h2.857c1.762 0 3.064.317 3.683.984.682.62.936 1.667.571 3.064l-1.35 6.904h-3.269l1.302-6.54c.158-.73.11-1.253-.16-1.507-.253-.254-.777-.413-1.602-.413h-2.54l-1.667 8.46h-3.222l2.905-14.904zm16.714 6.285c1.254 0 2.032.207 2.444.683.413.413.46 1.254.255 2.285-.207 1.143-.62 1.969-1.302 2.445-.62.46-1.603.73-2.905.73H51l1.19-6.238c.064.095 2.286.095 2.286.095zm-7.841 12.46h3.222l.73-3.952h2.81c1.254 0 2.174-.111 3.016-.365a5.33 5.33 0 002.127-1.301c.523-.46.984-1.096 1.349-1.667a6.437 6.437 0 00.682-1.968c.318-1.762.111-3.111-.73-4.096-.825-.984-2.175-1.46-4.047-1.46h-6.239l-2.92 14.81z" fill="#fff"/></svg>