<svg width="80" height="80" viewBox="0 0 80 80" fill="none" xmlns="http://www.w3.org/2000/svg"><path d="M40 71.25c17.259 0 31.25-13.991 31.25-31.25S57.259 8.75 40 8.75 8.75 22.741 8.75 40 22.741 71.25 40 71.25z" fill="#C69"/><path d="M56.813 26.125c-.376-1.5-1.438-2.75-3.063-3.625-3.188-1.687-8.313-1.75-13-.062-2.813 1-8.125 3.25-12.125 6.937-4 3.75-4.625 7.063-4.313 8.375.688 3.625 4.5 6.188 7.5 8.313.813.562 1.563 1.062 2.125 1.562-1.687.875-6.25 3.438-7.5 6.125-.937 2.125-.5 3.688-.125 4.375.375.813 1 1.438 1.625 1.625.625.188 1.313.25 2 .25 2.688 0 5.313-1.437 6.938-3.875 1.625-2.437 1.75-5.687 1-7.687 1.063-.25 2.188-.25 3.438-.125 2.437.312 3.624 1.25 4.187 2 .625.812.75 1.625.688 2.125-.126.937-.876 1.5-1.25 1.75-.313.187-.563.375-.5.75.124.5.624.437.812.437.563-.125 2.563-1.125 2.688-3.375.062-1.375-.5-2.75-1.563-3.875C45 46.688 42.937 45.938 40.562 46c-1.75 0-2.937.188-3.874.5l-.063-.062c-.875-.938-2.063-1.813-3.125-2.688-2.5-1.875-4.813-3.687-4.688-6.375C29 34 32.313 30.688 38.75 27.5c5.688-2.812 10.313-2.937 12.75-2.062 1 .375 1.688.875 1.938 1.437.5 1.063.312 2.438-.563 3.938-1.438 2.5-5.063 5.625-10.625 6.25-3.375.375-4.813-1.125-4.875-1.188-.375-.437-.625-.687-1.063-.437-.5.25-.25.937-.124 1.187.25.688 1.312 1.875 3.124 2.5 1.438.5 5.126.813 9.688-.937 5.25-2.125 8.875-7.75 7.813-12.063zM35.25 52.75c-.063.125-.063.25-.125.375-.063.125-.125.25-.125.375a5.439 5.439 0 01-1.125 1.625c-1.438 1.563-3.375 2-4 1.625-.188-.125-.25-.312-.313-.562-.125-.75.313-2.25 1.625-3.563 1.563-1.625 3.75-2.812 4.25-3.062.188 1.125.126 2.187-.187 3.187z" fill="#fff"/></svg>